<svg width="53" height="46" viewBox="0 0 53 46" fill="none" xmlns="http://www.w3.org/2000/svg">
<path d="M18.5928 45.2861C18.4638 45.4139 18.3401 45.4754 18.2354 45.4873C17.8958 45.5256 17.5817 45.4795 17.3789 45.3428C17.2165 45.2332 17.0305 45.0014 17.0674 44.4121C17.0768 44.2622 17.1634 44.0932 17.333 43.9443L40.167 23.9219L18.5928 45.2861ZM2.86914 44.5078C2.73828 44.6257 2.60375 44.6887 2.48145 44.7021C1.94129 44.7613 1.37629 44.6894 1.00293 44.4209C0.679301 44.1881 0.38323 43.7204 0.545898 42.6816C0.57239 42.5132 0.675695 42.3423 0.84668 42.2061L40.4141 10.6689L2.86914 44.5078ZM5.17383 26.8008C5.02633 26.9163 4.90451 26.9559 4.81543 26.9521C4.57882 26.9417 4.39308 26.8794 4.28711 26.7861C4.2102 26.7183 4.108 26.5773 4.15625 26.2148C4.17334 26.0867 4.26868 25.9351 4.46191 25.8018L21.1348 14.2988L5.17383 26.8008Z" fill="black" stroke="black"/>
</svg>
